<svg xmlns="http://www.w3.org/2000/svg" viewBox="0 0 32 32" width="32" height="32">
  <rect width="32" height="32" rx="8" fill="#3D2267" />
  <g fill="none" stroke="#FAFAFA" stroke-width="2" stroke-linecap="round" stroke-linejoin="round">
    <path d="M23 15c1.1-1.07 2.2-2.35 2.2-4.03A4.03 4.03 0 0 0 21.17 7c-1.29 0-2.2.37-3.3 1.47C16.77 7.37 15.86 7 14.57 7A4.03 4.03 0 0 0 10.5 10.97c0 1.68 1.1 2.96 2.2 4.03l5.17 5.13Z" transform="translate(-2 -1)" />
    <path d="M6 16h4l1.5-2.5 2 5 2-7 1.5 4.5H24" />
  </g>
</svg>
